<?xml version="1.0" encoding="utf-8"?>
<!-- Generator: Adobe Illustrator 16.0.0, SVG Export Plug-In . SVG Version: 6.00 Build 0)  -->
<!DOCTYPE svg PUBLIC "-//W3C//DTD SVG 1.1//EN" "http://www.w3.org/Graphics/SVG/1.1/DTD/svg11.dtd">
<svg version="1.1" id="Layer_1" xmlns="http://www.w3.org/2000/svg" xmlns:xlink="http://www.w3.org/1999/xlink" x="0px" y="0px"
	 width="216px" height="288px" viewBox="0 0 216 288" enable-background="new 0 0 216 288" xml:space="preserve">
<g>
	<g>
		<g id="Ice_Cream">
			<g>
				<g>
					<path fill="#FAD3E2" d="M106.659,279.678c-0.011,0-0.03,0-0.047,0c-2.365-0.016-4.474-1.506-5.285-3.727L52.944,143.426
						c-1.071-2.94,0.443-6.196,3.386-7.271c2.929-1.063,6.196,0.443,7.268,3.389l43.187,118.279l45.422-118.544
						c1.118-2.929,4.394-4.396,7.32-3.267c2.933,1.118,4.383,4.396,3.268,7.326l-50.842,132.702
						C111.114,278.232,109.005,279.678,106.659,279.678z"/>
				</g>
				<path fill="#FAD3E2" d="M92.34,240.439c-0.678,0-1.365-0.121-2.035-0.383c-2.926-1.117-4.377-4.395-3.253-7.324l35.387-91.865
					c1.13-2.924,4.419-4.37,7.331-3.25c2.927,1.123,4.372,4.401,3.256,7.325l-35.399,91.86
					C96.765,239.057,94.616,240.439,92.34,240.439z"/>
				<path fill="#FAD3E2" d="M78.109,201.529c-0.681,0-1.368-0.117-2.029-0.377c-2.927-1.119-4.383-4.396-3.262-7.32l20.744-54.022
					c1.121-2.93,4.421-4.392,7.325-3.262c2.927,1.124,4.382,4.402,3.258,7.326l-20.739,54.022
					C82.536,200.15,80.388,201.529,78.109,201.529z"/>
			</g>
			<g>
				<path fill="#FAD3E2" d="M186.206,101.264c-3.136,0-5.67-2.542-5.67-5.67c0-42.632-31.831-76.028-72.47-76.028
					c-40.647,0-72.484,33.396-72.484,76.028c0,3.128-2.542,5.67-5.67,5.67c-3.131,0-5.67-2.542-5.67-5.67
					c0-48.995,36.823-87.369,83.825-87.369c46.998,0,83.811,38.374,83.811,87.369C191.877,98.723,189.344,101.264,186.206,101.264z"
					/>
				<g>
					
						<path fill="#FAD3E2" stroke="#010101" stroke-width="2" stroke-linecap="round" stroke-linejoin="round" stroke-miterlimit="10" d="
						M29.848,95.301"/>
					
						<path fill="#FAD3E2" stroke="#010101" stroke-width="2" stroke-linecap="round" stroke-linejoin="round" stroke-miterlimit="10" d="
						M29.76,121.232"/>
					<path fill="#FAD3E2" d="M29.76,126.902c-0.006,0-0.011,0-0.02,0c-10.244-0.033-18.539-8.406-18.512-18.661
						c0.017-4.961,1.96-9.624,5.477-13.118c3.522-3.505,8.154-5.482,13.168-5.404c3.128,0.011,5.665,2.558,5.651,5.687
						c-0.011,3.123-2.544,5.654-5.67,5.654c-0.011,0-0.028,0-0.044,0c-1.927,0-3.738,0.742-5.097,2.104
						c-1.379,1.362-2.138,3.178-2.143,5.111c-0.011,4.004,3.22,7.276,7.207,7.287c3.129,0.011,5.665,2.558,5.654,5.687
						C35.418,124.382,32.877,126.902,29.76,126.902z"/>
				</g>
				<g>
					
						<path fill="#FAD3E2" stroke="#010101" stroke-width="2" stroke-linecap="round" stroke-linejoin="round" stroke-miterlimit="10" d="
						M186.132,95.539"/>
					
						<path fill="#FAD3E2" stroke="#010101" stroke-width="2" stroke-linecap="round" stroke-linejoin="round" stroke-miterlimit="10" d="
						M186.217,121.47"/>
					<path fill="#FAD3E2" d="M186.217,127.14c-3.123,0-5.658-2.519-5.67-5.653c-0.011-3.128,2.512-5.676,5.648-5.687
						c3.998-0.011,7.229-3.284,7.218-7.287c-0.006-1.933-0.764-3.749-2.132-5.111c-1.367-1.357-3.187-2.104-5.098-2.104
						c-0.021,0-0.032,0-0.046,0c-3.129,0-5.656-2.525-5.671-5.653c-0.011-3.129,2.514-5.676,5.648-5.687c0.022,0,0.047,0,0.068,0
						c4.95,0,9.595,1.916,13.104,5.405c3.521,3.499,5.466,8.156,5.482,13.123c0.033,10.255-8.272,18.627-18.52,18.661
						C186.229,127.14,186.217,127.14,186.217,127.14z"/>
				</g>
				<g>
					
						<path fill="#FAD3E2" stroke="#010101" stroke-width="2" stroke-linecap="round" stroke-linejoin="round" stroke-miterlimit="10" d="
						M30.003,121.404"/>
					
						<path fill="#FAD3E2" stroke="#010101" stroke-width="2" stroke-linecap="round" stroke-linejoin="round" stroke-miterlimit="10" d="
						M69.235,121.404"/>
					<path fill="#FAD3E2" d="M49.672,146.604c-13.901,0-25.209-11.307-25.209-25.2c0-3.129,2.539-5.67,5.67-5.67
						c3.129,0,5.67,2.542,5.67,5.67c0,7.642,6.219,13.859,13.869,13.859c7.661,0,13.894-6.224,13.894-13.859
						c0-3.129,2.539-5.67,5.67-5.67c3.128,0,5.67,2.542,5.67,5.67C74.906,135.302,63.587,146.604,49.672,146.604z"/>
				</g>
				<g>
					
						<path fill="#FAD3E2" stroke="#010101" stroke-width="2" stroke-linecap="round" stroke-linejoin="round" stroke-miterlimit="10" d="
						M68.986,121.404"/>
					
						<path fill="#FAD3E2" stroke="#010101" stroke-width="2" stroke-linecap="round" stroke-linejoin="round" stroke-miterlimit="10" d="
						M108.218,121.404"/>
					<path fill="#FAD3E2" d="M88.655,146.604c-13.901,0-25.209-11.307-25.209-25.2c0-3.129,2.539-5.67,5.67-5.67
						c3.129,0,5.67,2.542,5.67,5.67c0,7.642,6.219,13.859,13.869,13.859c7.661,0,13.894-6.224,13.894-13.859
						c0-3.129,2.538-5.67,5.669-5.67c3.129,0,5.671,2.542,5.671,5.67C113.889,135.302,102.57,146.604,88.655,146.604z"/>
				</g>
				<g>
					
						<path fill="#FAD3E2" stroke="#010101" stroke-width="2" stroke-linecap="round" stroke-linejoin="round" stroke-miterlimit="10" d="
						M107.969,121.404"/>
					
						<path fill="#FAD3E2" stroke="#010101" stroke-width="2" stroke-linecap="round" stroke-linejoin="round" stroke-miterlimit="10" d="
						M147.207,121.404"/>
					<path fill="#FAD3E2" d="M127.632,146.604c-13.896,0-25.202-11.307-25.202-25.2c0-3.129,2.538-5.67,5.67-5.67
						c3.128,0,5.67,2.542,5.67,5.67c0,7.642,6.224,13.859,13.862,13.859c7.667,0,13.898-6.224,13.898-13.859
						c0-3.129,2.534-5.67,5.672-5.67c3.128,0,5.669,2.542,5.669,5.67C152.877,135.302,141.553,146.604,127.632,146.604z"/>
				</g>
				<g>
					
						<path fill="#FAD3E2" stroke="#010101" stroke-width="2" stroke-linecap="round" stroke-linejoin="round" stroke-miterlimit="10" d="
						M146.952,121.404"/>
					
						<path fill="#FAD3E2" stroke="#010101" stroke-width="2" stroke-linecap="round" stroke-linejoin="round" stroke-miterlimit="10" d="
						M186.189,121.404"/>
					<path fill="#FAD3E2" d="M166.615,146.604c-13.896,0-25.204-11.307-25.204-25.2c0-3.129,2.539-5.67,5.671-5.67
						c3.135,0,5.671,2.542,5.671,5.67c0,7.642,6.224,13.859,13.862,13.859c7.667,0,13.899-6.224,13.899-13.859
						c0-3.129,2.533-5.67,5.669-5.67c3.129,0,5.671,2.542,5.671,5.67C191.859,135.302,180.536,146.604,166.615,146.604z"/>
				</g>
			</g>
			<path fill="#FAD3E2" d="M180.72,210.848c-9.636,0-17.178-7.535-17.178-17.158c0-7.299,6.531-19.543,12.91-30.562l0.383-0.664
				c0.758-1.318,2.262-1.977,3.68-2.127c1.508,0,2.901,0.799,3.663,2.094c3.214,5.477,13.721,23.906,13.721,31.26
				C197.903,203.318,190.351,210.848,180.72,210.848z M180.509,173.227c-5.627,10.219-8.461,17.096-8.461,20.463
				c0,4.938,3.721,8.654,8.672,8.654c4.946,0,8.673-3.721,8.673-8.654C189.398,190.924,185.248,181.955,180.509,173.227z"/>
		</g>
		<g>
		</g>
		<g>
		</g>
		<g>
		</g>
		<g>
		</g>
		<g>
		</g>
		<g>
		</g>
		<g>
		</g>
		<g>
		</g>
		<g>
		</g>
		<g>
		</g>
		<g>
		</g>
		<g>
		</g>
		<g>
		</g>
		<g>
		</g>
		<g>
		</g>
	</g>
	<g>
	</g>
	<g>
	</g>
	<g>
	</g>
	<g>
	</g>
	<g>
	</g>
	<g>
	</g>
	<g>
	</g>
	<g>
	</g>
	<g>
	</g>
	<g>
	</g>
	<g>
	</g>
	<g>
	</g>
	<g>
	</g>
	<g>
	</g>
	<g>
	</g>
</g>
</svg>
